<?xml version='1.0' encoding='iso-8859-1'?>
<!-- Uploaded to: SVG Repo, www.svgrepo.com, Generator: SVG Repo Mixer Tools -->
<svg fill="#000000" height="800px" width="800px" version="1.1" xmlns="http://www.w3.org/2000/svg" viewBox="0 0 463.01 463.01" xmlns:xlink="http://www.w3.org/1999/xlink" enable-background="new 0 0 463.01 463.01">
  <g>
    <path d="m271.444,336.874c-0.288-0.171-0.438-0.385-0.438-0.508v-209.423c0-0.121 0.158-0.342 0.449-0.512 24.396-14.209 39.551-40.528 39.551-68.687 0-19.287-6.999-37.889-19.707-52.378-4.347-4.955-11.126-6.663-17.277-4.349-6.079,2.288-10.008,7.974-10.008,14.483v35.674l-32.508,18.768-32.507-18.768-.001-35.676c0-6.509-3.926-12.192-10.002-14.479-6.153-2.317-12.94-0.604-17.294,4.359-12.84,14.646-19.834,33.449-19.694,52.949 0.197,27.459 15.355,53.441 39.56,67.808 0.285,0.169 0.438,0.387 0.438,0.507v209.424c0,0.121-0.158,0.343-0.449,0.513-24.396,14.21-39.551,40.528-39.551,68.686 0,19.287 6.999,37.889 19.707,52.378 3.06,3.488 7.325,5.367 11.728,5.367 1.852,0 3.729-0.333 5.55-1.019 6.079-2.288 10.008-7.974 10.008-14.483l.001-35.673 32.507-18.769 32.508,18.769v35.676c0,6.509 3.926,12.192 10.002,14.479 6.153,2.316 12.941,0.604 17.294-4.358 12.84-14.646 19.834-33.449 19.694-52.949-0.199-27.46-15.357-53.441-39.561-67.809zm8.586,110.869c-0.134,0.153-0.318,0.362-0.731,0.209-0.285-0.107-0.285-0.212-0.285-0.44v-40.006c0-2.68-1.43-5.155-3.75-6.495l-40.008-23.099c-2.32-1.34-5.18-1.34-7.5,0l-40.007,23.099c-2.32,1.34-3.75,3.815-3.75,6.495l-.001,40.003c0,0.224 0,0.335-0.292,0.445-0.405,0.152-0.584-0.051-0.716-0.201-10.308-11.752-15.984-26.841-15.984-42.487 0-22.839 12.3-44.191 32.102-55.725 4.872-2.84 7.898-8.002 7.898-13.474v-209.424c0-5.503-2.91-10.516-7.783-13.406-19.711-11.7-32.056-32.78-32.215-55.016-0.113-15.82 5.56-31.074 15.974-42.953 0.096-0.109 0.229-0.262 0.468-0.262 0.077,0 0.164,0.016 0.264,0.053 0.285,0.107 0.285,0.212 0.285,0.44l.001,40.006c0,2.68 1.43,5.155 3.75,6.495l40.007,23.098c2.32,1.34 5.18,1.34 7.5,0l40.006-23.098c2.32-1.34 3.75-3.815 3.75-6.495v-40.004c0-0.223 0-0.335 0.292-0.445 0.406-0.151 0.586,0.052 0.716,0.201 10.308,11.752 15.984,26.841 15.984,42.487 0,22.84-12.3,44.192-32.102,55.726-4.872,2.84-7.898,8.002-7.898,13.473v209.423c0,5.504 2.91,10.517 7.783,13.407 19.711,11.7 32.056,32.782 32.215,55.017 0.113,15.82-5.559,31.074-15.973,42.953z"/>
    <path d="m231.505,120.005c-4.143,0-7.5,3.357-7.5,7.5v208c0,4.143 3.357,7.5 7.5,7.5s7.5-3.357 7.5-7.5v-208c0-4.142-3.357-7.5-7.5-7.5z"/>
  </g>
</svg>